Coordinates
version=1
nRows=8
nColumns=28
inDegrees=yes

Units are S.I. units (second, meters, Newtons, ...)
Angles are in degrees.

endheader
time	pelvis_tilt	pelvis_list	pelvis_rotation	pelvis_tx	pelvis_ty	pelvis_tz	hip_flexion_r	hip_adduction_r	hip_rotation_r	knee_angle_r	ankle_angle_r	subtalar_angle_r	mtp_angle_r	hip_flexion_l	hip_adduction_l	hip_rotation_l	knee_angle_l	socket_flexion	socket_adduction	socket_rotation	socket_tx	socket_ty	socket_tz	foot_flex	lumbar_extension	lumbar_bending	lumbar_rotation
      0.65416667	      0.25382444	     -1.74263132	      6.55102574	     -0.03771008	      0.98039392	      0.27025854	     26.50032134	      4.81306164	      2.97854048	     -7.80076210	     15.94037571	    -29.53154889	    -13.77487131	    -25.15017706	     -2.16202218	     15.59301101	      6.17304676	      7.36025604	      0.00000000	      0.00000000	      0.00000000	     -0.00062511	      0.00000000	     10.49951171	    -11.54938257	      0.51460443	     -0.70987054
      0.65833333	      0.24036629	     -1.78843322	      6.71170045	     -0.03168878	      0.97944786	      0.26993397	     26.58210500	      4.94343147	      3.25098073	     -8.39060716	     15.77395587	    -29.50980580	    -13.71329414	    -25.38799754	     -2.27932615	     15.72084682	      6.01676843	      7.40152142	      0.00000000	      0.00000000	      0.00000000	     -0.00052038	      0.00000000	     10.53594935	    -11.48746037	      0.67296822	     -0.74809652
      0.66250000	      0.24833022	     -1.85041935	      6.82606597	     -0.02568565	      0.97851590	      0.26966133	     26.68874877	      5.11346472	      3.47461909	     -9.07053401	     15.55889364	    -29.50805290	    -13.64543808	    -25.64304199	     -2.39449682	     15.80642317	      5.85234354	      7.44925503	      0.00000000	      0.00000000	      0.00000000	     -0.00044515	      0.00000000	     10.56754354	    -11.45212531	      0.86318043	     -0.79976082
      0.66666667	      0.28562593	     -1.96080985	      6.82589748	     -0.01951029	      0.97753526	      0.26947867	     26.88001276	      5.36424312	      3.46605267	     -9.95598102	     15.10831824	    -29.59546438	    -13.22503220	    -25.96592629	     -2.49144493	     15.58704397	      5.71445545	      7.51134355	      0.00000000	      0.00000000	      0.00000000	     -0.00042476	      0.00000000	     10.57640382	    -11.42715871	      1.11526096	     -0.91563858
      0.67083333	      0.29921108	     -2.03234488	      6.96408513	     -0.01343260	      0.97668772	      0.26916985	     26.93436679	      5.52920124	      3.72399648	    -10.55066900	     14.87358245	    -29.53933407	    -13.11443332	    -26.21072441	     -2.62830908	     15.72935851	      5.53712790	      7.58544264	      0.00000000	      0.00000000	      0.00000000	     -0.00038167	      0.00000000	     10.57701710	    -11.38827238	      1.30882599	     -0.92562674
      0.67500000	      0.33580672	     -2.11872195	      7.05120460	     -0.00734865	      0.97587108	      0.26892083	     27.02414070	      5.72846658	      3.89065514	    -11.25795634	     14.55152084	    -29.50318483	    -12.99090305	    -26.47480556	     -2.75149268	     15.75411118	      5.33925245	      7.65411970	      0.00000000	      0.00000000	      0.00000000	     -0.00035622	      0.00000000	     10.55318370	    -11.37253650	      1.52895895	     -0.95537926
      0.67916667	      0.39733166	     -2.24402465	      7.06097630	     -0.00124024	      0.97506641	      0.26874440	     27.15939758	      5.98845252	      3.96244111	    -12.08995295	     14.10101071	    -29.47051281	    -12.79546737	    -26.75852195	     -2.87538906	     15.67290110	      5.11058020	      7.71571242	      0.00000000	      0.00000000	      0.00000000	     -0.00039823	      0.00000000	     10.50060156	    -11.39978982	      1.79615756	     -0.99538806
      0.68333333	      0.64293948	     -2.35201269	      7.19814755	      0.00540957	      0.97447096	      0.26796457	     27.17596644	      6.02785814	      2.94693672	    -12.95565972	     10.86939594	    -29.84919015	     -0.32653043	    -27.29061693	     -3.00986699	     15.50070776	      4.95789873	      7.82115007	      0.00000000	      0.00000000	      0.00000000	     -0.00025753	      0.00000000	     10.43357908	    -11.53277061	      2.12525468	     -1.07003715
